<?xml version="1.0" encoding="utf-8"?>
<!-- Generator: Adobe Illustrator 25.2.3, SVG Export Plug-In . SVG Version: 6.00 Build 0)  -->
<svg version="1.1" id="Layer_1" xmlns="http://www.w3.org/2000/svg" xmlns:xlink="http://www.w3.org/1999/xlink" x="0px" y="0px"
	 viewBox="0 0 3601.45 3492.91" style="enable-background:new 0 0 3601.45 3492.91;" xml:space="preserve">
<style type="text/css">
	.st0{fill:#39B54A;}
	.st1{fill:#FF0000;}
</style>
<path class="st0" d="M2506.46,2541.03c-164.21,146.1-375.16,238.92-593.93,260.04c-180.4,18.54-365.4-9.97-531.33-83.28
	c-195.73-85.32-364.01-231.85-476.02-413.64c-182.65-290.05-208.05-670.67-67.96-983.13c88.97-202.26,243.1-374.83,433.9-486.31
	c175.25-103.65,381.37-154.03,584.82-142.88c214.48,7.83,424.79,86.39,594.57,217.27c158.32,122.09,282.44,289.3,349.86,477.85
	l10.32,33.12c63.56,1.5,145.69-0.75,209.35,0.96l-2.83-10.08c-38.27-119.94-86.39-237.53-156.28-342.89
	c-195.3-306.02-529.08-518.46-889.45-564.56c-0.96-118.12,0.21-236.35-0.64-354.47c-110.3-10.5-221.67-12.54-331.85,0.11
	c0.64,117.8-0.43,235.7,0.54,353.61c-333.35,44.59-645.16,228.1-843.78,499.71c-154.99,208.7-242.78,466.8-244.71,726.95
	c-5.15,230.24,56.92,460.91,174.39,658.78c191.54,326.28,537.65,557.38,913.56,603.9c-0.11,117.8,0.86,235.6-0.54,353.4
	c109.33,16.83,220.38,8.25,330.35,3.97c5.57-118.87,0.64-238.17,2.47-357.15c303.45-38.05,589.32-194.65,787.4-427.14
	c122.19-140.2,207.94-309.24,260.25-487.06l-205.37-0.96C2751.71,2253.87,2648.38,2417.66,2506.46,2541.03z"/>
<path class="st1" d="M551.89,735.99c231.53-285.66,563.38-491.89,925.35-561.24c0.43,66.56-0.21,133.13,0.43,199.69
	c-233.56,57.24-452.65,173-629.09,336.68c-188.76,174.18-329.5,400.45-399.6,647.74c-109.33,376.23-52.63,797.37,155.32,1129.87
	c184.79,300.88,486.2,528.76,827.7,620.19c15.01,4.5,31.08,6.97,45.13,14.47c0.96,66.78-0.11,133.66,0.32,200.55
	c-384.8-78.89-737.24-303.56-969.62-620.4c-246.96-330.67-357.04-759.53-300.23-1168.24C244.91,1243.74,366.46,963.98,551.89,735.99
	z"/>
<path class="st1" d="M3107.14,810.91c-230.88-321.89-584.17-557.81-973.8-634.12c-0.32,65.06,0.96,130.13-0.75,195.08
	c17.9,6.54,36.23,12.54,54.77,17.68c194.97,54.02,377.52,151.78,531.44,282.98c269.36,227.45,450.08,559.41,487.6,910.56
	c-244.07,0.21-488.24,0.11-732.41,0.11c-38.27-158.21-135.7-300.56-267.97-394.88c-154.56-111.37-356.94-154.78-543.23-113.3
	c-151.03,31.19-290.16,115.98-387.91,235.17c-101.83,122.41-158.64,281.37-157.14,440.65c-0.43,179.11,73.21,357.37,200.87,483.2
	c118.18,122.47,283.77,191.88,452.34,201.01c2.36-39.12,4.62-78.23,6.31-117.38c1.67-40.14,3.29-80.32,2.55-120.5
	c-0.37-9.9-0.41-19.94-2.61-29.63c-1.42-6.41-9.38-6.57-14.6-7.48c-29.17-2.12-58.35,1.7-87.31,4.82
	c-59.39,7.25-118.43,17.15-177.26,27.94c7.33-21.95,14.1-44.13,18.91-66.77c1.83-9.34,3.61-18.79,3.63-28.34
	c0.31-5.19-3.09-9.46-6.02-13.36c-10.74-13.21-23.48-24.6-35.97-36.12c-32.76-29.32-66.95-57.01-101.29-84.45
	c-37.32-29.78-75.19-58.87-113.17-87.8c-5.32-3.99-10.48-8.23-16.04-11.89v-1.19l0.75,0.13c1.47-0.21,2.89-0.63,4.23-1.24
	c16.52-7.12,32.99-14.55,48.41-23.87c4.52-2.91,9.26-5.75,12.86-9.81c2.25-3.93,1.67-8.72,1.55-13.05
	c-1.19-15.04-4.88-29.74-8.33-44.39c-11.2-44.08-25.23-87.38-39.71-130.5c34.26,8.05,68.59,15.8,103.1,22.7
	c18.64,3.56,37.29,7.44,56.23,9.09c4.21,0.39,8.89,0.28,12.34-2.53c5.74-4.52,9.03-11.29,12.02-17.79
	c8.4-19.67,12.09-40.88,16-61.78c8.11,11.07,16.69,21.79,25.16,32.59c22.7,28.37,46.06,56.36,72.07,81.79
	c11.53,10.96,23.41,21.83,37.23,29.88c5.74,3.11,12.01,6.19,18.71,5.8c4.62-0.23,8.57-3.55,10.08-7.84
	c3.77-9.96,1.63-20.82,0.69-31.08c-5.17-40.24-12.71-80.11-19.92-120.02c-10.02-53.66-20.49-107.23-31.32-160.74
	c21.88,10.51,42.58,23.35,64.69,33.4c8.57,3.83,17.36,7.46,26.66,9.11c5.32,0.86,11.74,1.14,15.6-3.37
	c10.1-10.41,17.34-23.16,24.99-35.38c27.85-46.93,52.33-95.76,76.63-144.59c1.38-2.75,2.79-5.49,3.77-8.41h0.39
	c22.9,46.43,46.74,92.42,72.4,137.41c9.55,16.23,18.98,32.61,30.46,47.57c3.24,3.81,6.35,8.26,11.11,10.24
	c6.17,1.2,12.38-0.93,18.25-2.68c28.93-10.36,55.47-26.21,81.78-41.87c-11.85,66.91-23.64,133.84-36.89,200.49
	c-5.31,28.35-14.56,56.24-14.52,85.34c0.11,8.94,1,18.78,7.04,25.89c3.15,3.3,8.16,6.26,12.75,4.15
	c7.16-2.76,13.05-7.87,18.98-12.57c15.3-12.97,29.23-27.46,43.11-41.92c28.45-30.13,55.39-61.62,82.68-92.79
	c3.76,22.88,7.9,46.33,19.24,66.85c4.38,7.37,10.39,15.42,19.48,16.74c9.11,0.35,18.12-1.53,27.09-2.91
	c44.46-7.81,88.37-18.37,132.35-28.45c-13.67,47.09-27.35,94.18-39.36,141.73c-3.39,14.13-7.3,28.25-8.93,42.72
	c-0.84,6.24,5.65,9.54,9.91,12.68c19.17,11.85,40.2,20.28,61.09,28.58v0.1c-73.42,58.12-146.61,116.54-218.53,176.51
	c-16.2,13.73-32.5,27.38-47.97,41.96c-4.85,4.6-10.59,9.64-10.5,16.95c-0.52,13.91,3.3,27.53,6.87,40.85
	c4.4,15.61,9.95,30.86,15.78,45.99c-42.54-5.5-85.11-10.7-127.66-16.06c-44.92-5.47-89.82-11.2-134.88-15.46
	c-3.31-0.26-7.53-0.99-9.5,2.45c-4.64,7-5.51,15.65-6.92,23.74c-3.47,26.28-3.49,52.87-3.48,79.34
	c0.33,57.28,3.37,114.5,7.34,171.62c95.69-0.34,191.19-20.28,278.41-61.2c189.29-84.25,334.85-259.07,383.84-460.26
	c244.07,0.32,488.24-0.11,732.41,0.21c-21.76,204.73-93.36,403.45-201.83,578.06c-193.15,313.1-513.22,543.44-871.01,628.87
	c2.25,66.56-5.04,133.88,4.5,200.12c263.04-59.38,512.89-180.72,715.91-359.08c301.63-259.39,501.43-634.87,543.87-1030.72
	C3444.25,1539.47,3339.74,1131.08,3107.14,810.91z"/>
</svg>
