<?xml version="1.0" encoding="utf-8"?>
<!-- Generator: Adobe Illustrator 25.2.3, SVG Export Plug-In . SVG Version: 6.00 Build 0)  -->
<svg version="1.1" id="Layer_1" xmlns="http://www.w3.org/2000/svg" xmlns:xlink="http://www.w3.org/1999/xlink" x="0px" y="0px"
	 viewBox="0 0 2910.88 765.33" style="enable-background:new 0 0 2910.88 765.33;" xml:space="preserve">
<style type="text/css">
	.st0{fill:#001330;}
	.st1{fill:#39B54A;}
	.st2{fill:#FF0000;}
</style>
<rect x="-7.9" y="-23.35" class="st0" width="2918.78" height="814.63"/>
<path class="st1" d="M501.34,532.82c-30.28,26.94-69.19,44.06-109.53,47.96c-33.27,3.42-67.39-1.84-97.99-15.36
	c-36.09-15.73-67.13-42.76-87.79-76.28c-33.68-53.49-38.37-123.68-12.53-181.3c16.41-37.3,44.83-69.13,80.02-89.68
	c32.32-19.12,70.33-28.41,107.85-26.35c39.55,1.44,78.34,15.93,109.65,40.07c29.2,22.52,52.09,53.35,64.52,88.12l1.9,6.11
	c11.72,0.28,26.87-0.14,38.61,0.18l-0.52-1.86c-7.06-22.12-15.93-43.8-28.82-63.24c-36.02-56.43-97.57-95.61-164.03-104.11
	c-0.18-21.78,0.04-43.59-0.12-65.37c-20.34-1.94-40.88-2.31-61.2,0.02c0.12,21.72-0.08,43.47,0.1,65.21
	c-61.48,8.22-118.98,42.06-155.61,92.15c-28.58,38.49-44.77,86.09-45.13,134.06c-0.95,42.46,10.5,85,32.16,121.49
	C208.21,564.8,272.04,607.42,341.36,616c-0.02,21.72,0.16,43.45-0.1,65.17c20.16,3.1,40.64,1.52,60.92,0.73
	c1.03-21.92,0.12-43.92,0.45-65.86c55.96-7.02,108.68-35.9,145.21-78.77c22.53-25.86,38.35-57.03,47.99-89.82l-37.87-0.18
	C546.56,479.86,527.51,510.07,501.34,532.82z"/>
<path class="st2" d="M140.88,199.94c42.7-52.68,103.9-90.71,170.65-103.5c0.08,12.28-0.04,24.55,0.08,36.83
	c-43.07,10.56-83.48,31.9-116.01,62.09c-34.81,32.12-60.76,73.85-73.69,119.45c-20.16,69.38-9.71,147.05,28.64,208.37
	c34.08,55.49,89.66,97.51,152.64,114.37c2.77,0.83,5.73,1.28,8.32,2.67c0.18,12.31-0.02,24.65,0.06,36.98
	c-70.96-14.55-135.96-55.98-178.81-114.41c-45.54-60.98-65.84-140.07-55.37-215.44C84.27,293.58,106.68,241.99,140.88,199.94z"/>
<path class="st2" d="M612.11,213.76C569.53,154.4,504.38,110.89,432.53,96.82c-0.06,12,0.18,24-0.14,35.98
	c3.3,1.21,6.68,2.31,10.1,3.26c35.96,9.96,69.62,27.99,98.01,52.19c49.67,41.95,83,103.16,89.92,167.92
	c-45.01,0.04-90.04,0.02-135.07,0.02c-7.06-29.18-25.03-55.43-49.42-72.82c-28.5-20.54-65.82-28.54-100.18-20.89
	c-27.85,5.75-53.51,21.39-71.54,43.37c-18.78,22.57-29.26,51.89-28.98,81.26c-0.08,33.03,13.5,65.9,37.04,89.11
	c21.79,22.59,52.33,35.39,83.42,37.07c0.43-7.21,0.85-14.43,1.16-21.65c0.31-7.4,0.61-14.81,0.47-22.22
	c-0.07-1.83-0.08-3.68-0.48-5.46c-0.26-1.18-1.73-1.21-2.69-1.38c-5.38-0.39-10.76,0.31-16.1,0.89
	c-10.95,1.34-21.84,3.16-32.69,5.15c1.35-4.05,2.6-8.14,3.49-12.31c0.34-1.72,0.67-3.47,0.67-5.23c0.06-0.96-0.57-1.75-1.11-2.46
	c-1.98-2.44-4.33-4.54-6.63-6.66c-6.04-5.41-12.35-10.51-18.68-15.57c-6.88-5.49-13.87-10.86-20.87-16.19
	c-0.98-0.74-1.93-1.52-2.96-2.19v-0.22l0.14,0.02c0.27-0.04,0.53-0.12,0.78-0.23c3.05-1.31,6.08-2.68,8.93-4.4
	c0.83-0.54,1.71-1.06,2.37-1.81c0.41-0.72,0.31-1.61,0.29-2.41c-0.22-2.77-0.9-5.48-1.54-8.19c-2.07-8.13-4.65-16.11-7.32-24.07
	c6.32,1.49,12.65,2.91,19.01,4.19c3.44,0.66,6.88,1.37,10.37,1.68c0.78,0.07,1.64,0.05,2.27-0.47c1.06-0.83,1.66-2.08,2.22-3.28
	c1.55-3.63,2.23-7.54,2.95-11.39c1.5,2.04,3.08,4.02,4.64,6.01c4.19,5.23,8.49,10.39,13.29,15.08c2.13,2.02,4.32,4.03,6.87,5.51
	c1.06,0.57,2.21,1.14,3.45,1.07c0.85-0.04,1.58-0.65,1.86-1.45c0.7-1.84,0.3-3.84,0.13-5.73c-0.95-7.42-2.34-14.77-3.67-22.13
	c-1.85-9.9-3.78-19.78-5.78-29.64c4.04,1.94,7.85,4.31,11.93,6.16c1.58,0.71,3.2,1.38,4.92,1.68c0.98,0.16,2.17,0.21,2.88-0.62
	c1.86-1.92,3.2-4.27,4.61-6.52c5.14-8.65,9.65-17.66,14.13-26.67c0.26-0.51,0.51-1.01,0.7-1.55h0.07
	c4.22,8.56,8.62,17.04,13.35,25.34c1.76,2.99,3.5,6.01,5.62,8.77c0.6,0.7,1.17,1.52,2.05,1.89c1.14,0.22,2.28-0.17,3.37-0.49
	c5.34-1.91,10.23-4.83,15.08-7.72c-2.19,12.34-4.36,24.68-6.8,36.97c-0.98,5.23-2.69,10.37-2.68,15.74c0.02,1.65,0.19,3.46,1.3,4.77
	c0.58,0.61,1.5,1.15,2.35,0.77c1.32-0.51,2.41-1.45,3.5-2.32c2.82-2.39,5.39-5.06,7.95-7.73c5.25-5.56,10.21-11.36,15.25-17.11
	c0.69,4.22,1.46,8.54,3.55,12.33c0.81,1.36,1.92,2.84,3.59,3.09c1.68,0.07,3.34-0.28,4.99-0.54c8.2-1.44,16.3-3.39,24.41-5.25
	c-2.52,8.68-5.04,17.37-7.26,26.14c-0.63,2.61-1.35,5.21-1.65,7.88c-0.15,1.15,1.04,1.76,1.83,2.34c3.54,2.19,7.41,3.74,11.27,5.27
	v0.02c-13.54,10.72-27.04,21.49-40.3,32.55c-2.99,2.53-5.99,5.05-8.85,7.74c-0.89,0.85-1.95,1.78-1.94,3.13
	c-0.1,2.57,0.61,5.08,1.27,7.53c0.81,2.88,1.83,5.69,2.91,8.48c-7.85-1.01-15.7-1.97-23.54-2.96c-8.28-1.01-16.56-2.07-24.87-2.85
	c-0.61-0.05-1.39-0.18-1.75,0.45c-0.86,1.29-1.02,2.89-1.28,4.38c-0.64,4.85-0.64,9.75-0.64,14.63c0.06,10.56,0.62,21.12,1.35,31.65
	c17.65-0.06,35.26-3.74,51.34-11.29c34.91-15.54,61.75-47.78,70.79-84.88c45.01,0.06,90.04-0.02,135.07,0.04
	c-4.01,37.76-17.22,74.4-37.22,106.6c-35.62,57.74-94.65,100.22-160.63,115.97c0.42,12.28-0.93,24.69,0.83,36.91
	c48.51-10.95,94.59-33.33,132.02-66.22c55.62-47.84,92.47-117.08,100.3-190.08C674.28,348.12,655.01,272.8,612.11,213.76z"/>
<path class="st1" d="M970.41,466.95H864.03c-27.38,0-50.02-9.09-67.93-27.28c-17.91-18.19-26.87-41.15-26.87-68.9
	c0-27.56,8.86-49.79,26.6-66.69c17.73-16.9,40.46-25.35,68.21-25.35h106.38v32.79H864.03c-18.01,0-32.84,5.79-44.51,17.36
	c-11.67,11.58-17.5,26.46-17.5,44.65c0,18.01,5.83,32.61,17.5,43.82c11.67,11.21,26.5,16.81,44.51,16.81h106.38V466.95z"/>
<path class="st1" d="M1222.3,466.95h-48.5l-52.64-52.91h-70.83v-32.52h88.19c12.13,0,22.32-2.66,30.59-7.99
	c9.37-6.24,14.06-15.16,14.06-26.73c0-23.52-14.88-35.28-44.65-35.28h-107.48v155.43h-32.8V278.72h135.04
	c24.25,0,43.82,5.24,58.7,15.71c17.09,11.95,25.63,29.49,25.63,52.64c0,15.8-4.96,29.4-14.88,40.79
	c-9.19,10.66-21.68,18.1-37.48,22.32L1222.3,466.95z"/>
<path class="st1" d="M1436.16,278.72l-93.43,125.94v62.28h-32.52v-62.83l-95.91-125.39h42.17l70.83,92.6l66.42-92.6H1436.16z"/>
<path class="st1" d="M1666.83,346.51c0,20.58-7.54,37.2-22.6,49.88c-13.96,11.76-31.51,17.64-52.64,17.64h-82.95v-32.52h88.19
	c10.84,0,19.93-3.21,27.28-9.65c7.35-6.43,11.03-14.97,11.03-25.63c0-10.65-3.68-19.11-11.03-25.35
	c-7.35-6.24-16.44-9.37-27.28-9.37h-107.48v155.43h-32.8V278.72h135.04c21.13,0,38.67,5.97,52.64,17.91
	C1659.29,309.13,1666.83,325.75,1666.83,346.51z"/>
<path class="st1" d="M1860.02,311.51h-74.13v155.43h-32.52V311.51h-74.41v-32.79h181.06V311.51z"/>
<path class="st1" d="M2109.15,370.76c0,27.74-8.91,50.71-26.73,68.9c-17.82,18.19-40.51,27.28-68.07,27.28h-52.64
	c-27.38,0-50.02-9.09-67.93-27.28c-17.91-18.19-26.87-41.15-26.87-68.9c0-27.56,8.86-49.79,26.6-66.69
	c17.73-16.9,40.46-25.35,68.21-25.35h52.64c27.92,0,50.71,8.45,68.35,25.35C2100.33,320.98,2109.15,343.2,2109.15,370.76z
	 M2076.63,373.52c0-18.19-5.83-33.07-17.5-44.65c-11.67-11.58-26.59-17.36-44.78-17.36h-52.64c-18.01,0-32.84,5.79-44.51,17.36
	c-11.67,11.58-17.5,26.46-17.5,44.65c0,18.01,5.83,32.61,17.5,43.82c11.67,11.21,26.5,16.81,44.51,16.81h52.64
	c18.19,0,33.11-5.6,44.78-16.81C2070.79,406.13,2076.63,391.53,2076.63,373.52z"/>
<path class="st2" d="M2332.93,466.95h-106.38c-27.38,0-50.02-9.09-67.93-27.28c-17.91-18.19-26.87-41.15-26.87-68.9
	c0-27.56,8.86-49.79,26.6-66.69c17.73-16.9,40.46-25.35,68.21-25.35h106.38v32.79h-106.38c-18.01,0-32.84,5.79-44.51,17.36
	c-11.67,11.58-17.5,26.46-17.5,44.65c0,18.01,5.83,32.61,17.5,43.82c11.67,11.21,26.5,16.81,44.51,16.81h106.38V466.95z"/>
<path class="st2" d="M2506.28,296.63c-2.76-4.77-6.34-8.91-10.75-12.4c-5.15-4.04-10.11-6.06-14.88-6.06
	c-4.41,0-9.37,2.11-14.88,6.34c-4.59,3.68-8.18,7.72-10.75,12.13l-102.25,170.04h42.17l84.88-139.45l32.8,54.29l19.57,32.52
	l31.69,52.64l42.17,0.28L2506.28,296.63z"/>
<path class="st2" d="M2829.82,370.76c0,27.74-8.91,50.71-26.73,68.9c-17.82,18.19-40.51,27.28-68.07,27.28h-106.1V278.72h106.1
	c27.74,0,50.48,8.45,68.21,25.35C2820.96,320.98,2829.82,343.2,2829.82,370.76z M2797.03,373.52c0-18.19-5.84-33.07-17.5-44.65
	c-11.67-11.58-26.5-17.36-44.51-17.36h-73.58v122.64h73.58c18,0,32.84-5.6,44.51-16.81
	C2791.19,406.13,2797.03,391.53,2797.03,373.52z"/>
</svg>
