<?xml version="1.0" encoding="utf-8"?>
<!-- Generator: Adobe Illustrator 25.2.3, SVG Export Plug-In . SVG Version: 6.00 Build 0)  -->
<svg version="1.1" id="Layer_1" xmlns="http://www.w3.org/2000/svg" xmlns:xlink="http://www.w3.org/1999/xlink" x="0px" y="0px"
	 viewBox="0 0 3987.34 765.33" style="enable-background:new 0 0 3987.34 765.33;" xml:space="preserve">
<style type="text/css">
	.st0{fill:#001330;}
	.st1{fill:#39B54A;}
	.st2{fill:#FF0000;}
</style>
<rect x="-26" y="-23.35" class="st0" width="4013.34" height="814.63"/>
<path class="st1" d="M448.7,547.77H251.23c-50.82,0-92.85-16.88-126.1-50.65c-33.25-33.76-49.88-76.39-49.88-127.9
	c0-51.16,16.45-92.42,49.37-123.8c32.91-31.37,75.11-47.06,126.61-47.06H448.7v60.88H251.23c-33.43,0-60.96,10.74-82.62,32.23
	c-21.66,21.49-32.48,49.11-32.48,82.88c0,33.43,10.82,60.54,32.48,81.34c21.66,20.81,49.19,31.21,82.62,31.21H448.7V547.77z"/>
<path class="st1" d="M916.28,547.77h-90.04l-97.71-98.22H597.05v-60.37h163.71c22.51,0,41.44-4.94,56.78-14.83
	c17.39-11.59,26.09-28.14,26.09-49.62c0-43.65-27.62-65.48-82.87-65.48H561.24v288.53h-60.88V198.36h250.67
	c45.02,0,81.34,9.72,108.97,29.16c31.71,22.18,47.57,54.74,47.57,97.71c0,29.34-9.21,54.57-27.62,75.71
	c-17.06,19.78-40.25,33.6-69.58,41.44L916.28,547.77z"/>
<path class="st1" d="M1313.26,198.36l-173.43,233.79v115.62h-60.37V431.13L901.44,198.36h78.27l131.48,171.89l123.29-171.89H1313.26
	z"/>
<path class="st1" d="M1741.44,324.21c0,38.2-13.99,69.06-41.95,92.59c-25.92,21.83-58.49,32.74-97.71,32.74H1447.8v-60.37h163.71
	c20.12,0,37-5.96,50.65-17.91c13.64-11.93,20.47-27.79,20.47-47.58c0-19.77-6.83-35.46-20.47-47.06
	c-13.65-11.59-30.53-17.39-50.65-17.39h-199.51v288.53h-60.88V198.36h250.67c39.22,0,71.79,11.08,97.71,33.25
	C1727.46,254.81,1741.44,285.67,1741.44,324.21z"/>
<path class="st1" d="M2100.06,259.24h-137.61v288.53h-60.37V259.24h-138.13v-60.88h336.1V259.24z"/>
<path class="st1" d="M2562.52,369.23c0,51.5-16.54,94.13-49.62,127.9c-33.09,33.76-75.2,50.65-126.36,50.65h-97.71
	c-50.82,0-92.85-16.88-126.1-50.65c-33.25-33.76-49.88-76.39-49.88-127.9c0-51.16,16.45-92.42,49.37-123.8
	c32.91-31.37,75.11-47.06,126.61-47.06h97.71c51.83,0,94.13,15.69,126.87,47.06C2546.15,276.81,2562.52,318.07,2562.52,369.23z
	 M2502.15,374.35c0-33.76-10.83-61.39-32.48-82.88c-21.66-21.49-49.36-32.23-83.13-32.23h-97.71c-33.43,0-60.96,10.74-82.62,32.23
	c-21.66,21.49-32.48,49.11-32.48,82.88c0,33.43,10.82,60.54,32.48,81.34c21.66,20.81,49.19,31.21,82.62,31.21h97.71
	c33.76,0,61.47-10.4,83.13-31.21C2491.32,434.89,2502.15,407.77,2502.15,374.35z"/>
<path class="st2" d="M2977.92,547.77h-197.47c-50.82,0-92.85-16.88-126.1-50.65c-33.25-33.76-49.88-76.39-49.88-127.9
	c0-51.16,16.45-92.42,49.37-123.8c32.91-31.37,75.11-47.06,126.61-47.06h197.47v60.88h-197.47c-33.43,0-60.96,10.74-82.62,32.23
	c-21.66,21.49-32.48,49.11-32.48,82.88c0,33.43,10.82,60.54,32.48,81.34c21.66,20.81,49.19,31.21,82.62,31.21h197.47V547.77z"/>
<path class="st2" d="M3299.7,231.61c-5.12-8.86-11.77-16.54-19.95-23.02c-9.55-7.5-18.76-11.26-27.63-11.26
	c-8.18,0-17.39,3.92-27.63,11.77c-8.53,6.83-15.18,14.32-19.95,22.51l-189.8,315.65h78.27l157.56-258.86l60.88,100.78l36.32,60.37
	l58.83,97.71l78.27,0.51L3299.7,231.61z"/>
<path class="st2" d="M3900.29,369.23c0,51.5-16.54,94.13-49.62,127.9c-33.08,33.76-75.2,50.65-126.36,50.65h-196.96V198.36h196.96
	c51.5,0,93.7,15.69,126.61,47.06C3883.83,276.81,3900.29,318.07,3900.29,369.23z M3839.41,374.35c0-33.76-10.83-61.39-32.49-82.88
	c-21.66-21.49-49.2-32.23-82.62-32.23h-136.59v227.65h136.59c33.42,0,60.96-10.4,82.62-31.21
	C3828.58,434.89,3839.41,407.77,3839.41,374.35z"/>
</svg>
